# xmcd CD database file
#
# Track frame offsets:
#	150
#	9748
#	30643
#	44211
#	62173
#	83864
#	96270
#	111181
#	124766
#	138396
#	150957
#	172290
#	191873
#	207699
#	219029
#	244127
#
# Disc length: 3785 seconds
#
# Revision: 6
# Processed by: cddbd v1.5.2PL0 Copyright (c) Steve Scherf et al.
# Submitted via: CDex 1.70beta2
#
DISCID=ed0ec710
DTITLE=Various Artist - Forrest Gump The Soundtrack CD2
DYEAR=1994
DGENRE=Soundtrack
TTITLE0=Jefferson Airplane - Volunteers
TTITLE1=The Youngbloods - Let's Get Together
TTITLE2=Scott McKenzie - San Francisco (Be Sure To Wear Some Flowers In Your Hair)
TTITLE3=The Byrds - Turn! Turn! Turn! (To Everything There Is A Season)
TTITLE4=The Fifth Dimensions - Medley: Aquarius - Let The Sunshine In
TTITLE5=Harry Nilsson - Everybody's Talkin'
TTITLE6=Three Dog Night - Joy To The World
TTITLE7=The Supremes - Stoned Love
TTITLE8=B. J. Thomas - Raindrops Keep Falling On My Head
TTITLE9=Randy Newman - Mr. President (Have Pity On The Working Man)
TTITLE10=Lynyrd Skynjrd - Sweet Home Alabama
TTITLE11=The Doobie Brothers - It Keeps You Runnin'
TTITLE12=Gladys Knight and The Pips - I've Got To Use My Imagination
TTITLE13=Willie Nelson - On The Road Again
TTITLE14=Bob Seger and The Silver - Against The Wind
TTITLE15=Forrest Gump Suite
EXTD=YEAR: 1994
EXTT0=
EXTT1=
EXTT2=
EXTT3=
EXTT4=
EXTT5=
EXTT6=
EXTT7=
EXTT8=
EXTT9=
EXTT10=
EXTT11=
EXTT12=
EXTT13=
EXTT14=
EXTT15=
PLAYORDER=
